<?xml version="1.0" encoding="utf-8"?>
<!-- Generator: Adobe Illustrator 15.1.0, SVG Export Plug-In . SVG Version: 6.00 Build 0)  -->
<!DOCTYPE svg PUBLIC "-//W3C//DTD SVG 1.1//EN" "http://www.w3.org/Graphics/SVG/1.1/DTD/svg11.dtd">
<svg version="1.1" id="Layer_1" xmlns="http://www.w3.org/2000/svg" xmlns:xlink="http://www.w3.org/1999/xlink" x="0px" y="0px"
	 width="1200px" height="96px" viewBox="0 0 1200 96" enable-background="new 0 0 1200 96" xml:space="preserve">
<g>
	<path d="M83.225,2.097v24.829h-2.46c-1.458-5.728-3.075-9.843-4.852-12.347c-1.776-2.502-4.214-4.499-7.311-5.987
		c-1.731-0.812-4.761-1.218-9.088-1.218h-6.901V78.14c0,4.691,0.261,7.623,0.786,8.795c0.523,1.173,1.548,2.198,3.074,3.079
		c1.526,0.879,3.61,1.319,6.252,1.319h3.075v2.503H17.287v-2.503h3.075c2.688,0,4.852-0.473,6.491-1.42
		c1.184-0.631,2.118-1.713,2.802-3.248c0.501-1.083,0.751-3.924,0.751-8.524V7.374H23.71c-6.241,0-10.773,1.309-13.598,3.924
		c-3.963,3.653-6.469,8.863-7.516,15.628H0V2.097H83.225z"/>
	<path d="M126.546,49.726V78.14c0,4.691,0.261,7.623,0.786,8.795c0.522,1.173,1.547,2.198,3.074,3.079
		c1.525,0.879,3.587,1.319,6.184,1.319h3.075v2.503H91.22v-2.503h3.075c2.688,0,4.851-0.473,6.491-1.42
		c1.184-0.631,2.095-1.713,2.733-3.248c0.501-1.083,0.752-3.924,0.752-8.524V17.793c0-4.69-0.251-7.622-0.752-8.795
		c-0.501-1.172-1.515-2.198-3.041-3.079c-1.526-0.879-3.587-1.319-6.183-1.319H91.22V2.097h48.445v2.503h-3.075
		c-2.688,0-4.852,0.473-6.491,1.421c-1.185,0.632-2.119,1.714-2.802,3.247c-0.501,1.083-0.751,3.924-0.751,8.524v25.979h32.729
		V17.793c0-4.69-0.25-7.622-0.751-8.795c-0.501-1.172-1.526-2.198-3.075-3.079c-1.549-0.879-3.622-1.319-6.218-1.319h-3.006V2.097
		h48.377v2.503h-3.007c-2.733,0-4.897,0.473-6.491,1.421c-1.185,0.632-2.118,1.714-2.801,3.247
		c-0.502,1.083-0.752,3.924-0.752,8.524V78.14c0,4.691,0.25,7.623,0.752,8.795c0.5,1.173,1.525,2.198,3.075,3.079
		c1.548,0.879,3.622,1.319,6.218,1.319h3.007v2.503h-48.377v-2.503h3.006c2.733,0,4.896-0.473,6.492-1.42
		c1.184-0.631,2.118-1.713,2.801-3.248c0.501-1.083,0.751-3.924,0.751-8.524V49.726H126.546z"/>
	<path d="M235.258,7.374v37.345h1.845c5.876,0,10.135-1.827,12.778-5.48c2.642-3.653,4.327-9.042,5.056-16.169h2.597v48.034h-2.597
		c-0.546-5.232-1.697-9.516-3.451-12.854c-1.754-3.337-3.792-5.581-6.115-6.731c-2.323-1.149-5.695-1.725-10.113-1.725v25.844
		c0,5.052,0.216,8.142,0.649,9.269c0.433,1.128,1.241,2.053,2.426,2.773c1.184,0.722,3.098,1.083,5.74,1.083h5.535
		c8.655,0,15.59-1.984,20.807-5.954c5.215-3.969,8.962-10.013,11.24-18.131h2.528l-4.168,29.158h-80.082v-2.503h3.075
		c2.688,0,4.852-0.473,6.491-1.42c1.184-0.631,2.095-1.713,2.733-3.248c0.5-1.083,0.751-3.924,0.751-8.524V17.793
		c0-4.149-0.114-6.698-0.342-7.645c-0.456-1.578-1.298-2.796-2.528-3.653c-1.731-1.262-4.1-1.894-7.106-1.894h-3.075V2.097h77.554
		v27.129h-2.597c-1.321-6.63-3.177-11.388-5.568-14.275c-2.392-2.886-5.774-5.006-10.147-6.36c-2.552-0.812-7.334-1.218-14.35-1.218
		H235.258z"/>
	<path d="M376.7,91.332v2.503h-48.446v-2.503h3.075c2.687,0,4.851-0.473,6.491-1.42c1.184-0.631,2.095-1.713,2.733-3.248
		c0.501-1.083,0.752-3.924,0.752-8.524V17.793c0-4.69-0.251-7.622-0.752-8.795c-0.501-1.172-1.515-2.198-3.04-3.079
		c-1.527-0.879-3.588-1.319-6.184-1.319h-3.075V2.097H376.7v2.503h-3.075c-2.688,0-4.852,0.473-6.491,1.421
		c-1.185,0.632-2.119,1.714-2.802,3.247c-0.501,1.083-0.751,3.924-0.751,8.524V78.14c0,4.691,0.261,7.623,0.785,8.795
		c0.523,1.173,1.548,2.198,3.076,3.079c1.525,0.879,3.587,1.319,6.184,1.319H376.7z"/>
	<path d="M417.083,52.026v25.708c0,4.961,0.307,8.084,0.922,9.369c0.614,1.287,1.696,2.313,3.246,3.079
		c1.548,0.767,4.441,1.15,8.678,1.15v2.503h-47.42v-2.503c4.281,0,7.185-0.394,8.712-1.183c1.525-0.789,2.596-1.815,3.21-3.079
		c0.616-1.262,0.923-4.375,0.923-9.336V18.199c0-4.961-0.307-8.085-0.923-9.37c-0.614-1.286-1.697-2.311-3.245-3.079
		c-1.549-0.767-4.441-1.15-8.678-1.15V2.097h43.047c11.206,0,19.406,0.767,24.599,2.3c5.193,1.534,9.429,4.363,12.709,8.491
		c3.28,4.126,4.92,8.964,4.92,14.511c0,6.766-2.46,12.359-7.379,16.778c-3.144,2.797-7.54,4.894-13.188,6.292l22.275,31.053
		c2.915,4.015,4.988,6.518,6.218,7.51c1.867,1.398,4.031,2.165,6.491,2.3v2.503h-29.177l-29.86-41.809H417.083z M417.083,7.036
		v40.186h3.895c6.332,0,11.069-0.575,14.212-1.725c3.144-1.15,5.614-3.224,7.414-6.224c1.799-2.999,2.699-6.912,2.699-11.738
		c0-6.991-1.652-12.155-4.954-15.493c-3.303-3.337-8.621-5.006-15.955-5.006H417.083z"/>
	<path d="M532.217,91.332v2.503h-48.445v-2.503h3.075c2.688,0,4.852-0.473,6.491-1.42c1.184-0.631,2.095-1.713,2.733-3.248
		c0.5-1.083,0.751-3.924,0.751-8.524V17.793c0-4.69-0.251-7.622-0.751-8.795c-0.502-1.172-1.516-2.198-3.041-3.079
		c-1.527-0.879-3.587-1.319-6.184-1.319h-3.075V2.097h48.445v2.503h-3.075c-2.688,0-4.852,0.473-6.491,1.421
		c-1.185,0.632-2.118,1.714-2.802,3.247c-0.501,1.083-0.751,3.924-0.751,8.524V78.14c0,4.691,0.261,7.623,0.786,8.795
		c0.523,1.173,1.548,2.198,3.075,3.079c1.525,0.879,3.587,1.319,6.184,1.319H532.217z"/>
	<path d="M601.161,0l0.752,30.579h-2.801c-1.321-7.667-4.567-13.835-9.737-18.502c-5.171-4.669-10.761-7.003-16.775-7.003
		c-4.646,0-8.326,1.23-11.036,3.687c-2.71,2.459-4.065,5.289-4.065,8.491c0,2.03,0.479,3.834,1.435,5.413
		c1.321,2.12,3.439,4.217,6.354,6.292c2.141,1.488,7.083,4.126,14.827,7.916c10.842,5.277,18.152,10.261,21.933,14.951
		c3.736,4.691,5.604,10.058,5.604,16.101c0,7.668-3.019,14.265-9.054,19.79C592.564,93.238,584.9,96,575.607,96
		c-2.917,0-5.671-0.293-8.27-0.879c-2.596-0.587-5.853-1.691-9.771-3.315c-2.187-0.902-3.986-1.353-5.398-1.353
		c-1.185,0-2.437,0.451-3.758,1.353c-1.322,0.903-2.392,2.278-3.212,4.127h-2.528V61.294h2.528
		c2.004,9.743,5.865,17.174,11.582,22.292c5.717,5.12,11.878,7.679,18.482,7.679c5.103,0,9.169-1.375,12.197-4.127
		c3.029-2.75,4.545-5.954,4.545-9.606c0-2.165-0.58-4.262-1.744-6.292c-1.16-2.03-2.927-3.957-5.294-5.785
		c-2.37-1.826-6.56-4.205-12.572-7.137c-8.428-4.104-14.486-7.6-18.176-10.486c-3.689-2.886-6.525-6.111-8.507-9.675
		c-1.98-3.563-2.972-7.486-2.972-11.771c0-7.306,2.71-13.531,8.131-18.672S563.125,0,571.37,0c3.006,0,5.922,0.361,8.746,1.083
		c2.141,0.542,4.75,1.545,7.825,3.011c3.074,1.466,5.227,2.198,6.455,2.198c1.187,0,2.119-0.36,2.804-1.083
		c0.682-0.721,1.318-2.458,1.913-5.209H601.161z"/>
	<path d="M651.52,49.726V78.14c0,4.691,0.262,7.623,0.785,8.795c0.524,1.173,1.55,2.198,3.074,3.079
		c1.527,0.879,3.587,1.319,6.186,1.319h3.074v2.503h-48.445v-2.503h3.074c2.688,0,4.853-0.473,6.492-1.42
		c1.184-0.631,2.094-1.713,2.733-3.248c0.501-1.083,0.752-3.924,0.752-8.524V17.793c0-4.69-0.251-7.622-0.752-8.795
		c-0.502-1.172-1.517-2.198-3.041-3.079c-1.527-0.879-3.587-1.319-6.185-1.319h-3.074V2.097h48.445v2.503h-3.074
		c-2.688,0-4.853,0.473-6.492,1.421c-1.184,0.632-2.119,1.714-2.801,3.247c-0.502,1.083-0.752,3.924-0.752,8.524v25.979h32.73
		V17.793c0-4.69-0.251-7.622-0.753-8.795c-0.501-1.172-1.527-2.198-3.074-3.079c-1.55-0.879-3.62-1.319-6.219-1.319h-3.006V2.097
		h48.377v2.503h-3.007c-2.732,0-4.896,0.473-6.492,1.421c-1.183,0.632-2.115,1.714-2.801,3.247
		c-0.501,1.083-0.752,3.924-0.752,8.524V78.14c0,4.691,0.251,7.623,0.752,8.795c0.502,1.173,1.527,2.198,3.074,3.079
		c1.55,0.879,3.624,1.319,6.219,1.319h3.007v2.503h-48.377v-2.503h3.006c2.733,0,4.897-0.473,6.492-1.42
		c1.184-0.631,2.119-1.713,2.801-3.248c0.502-1.083,0.753-3.924,0.753-8.524V49.726H651.52z"/>
	<path d="M842.842,2.097v24.829h-2.46c-1.457-5.728-3.074-9.843-4.853-12.347c-1.775-2.502-4.213-4.499-7.309-5.987
		c-1.733-0.812-4.763-1.218-9.091-1.218h-6.9V78.14c0,4.691,0.263,7.623,0.786,8.795c0.524,1.173,1.55,2.198,3.074,3.079
		c1.527,0.879,3.609,1.319,6.253,1.319h3.074v2.503h-48.513v-2.503h3.074c2.688,0,4.852-0.473,6.492-1.42
		c1.183-0.631,2.118-1.713,2.801-3.248c0.501-1.083,0.752-3.924,0.752-8.524V7.374h-6.697c-6.241,0-10.772,1.309-13.596,3.924
		c-3.965,3.653-6.47,8.863-7.518,15.628h-2.596V2.097H842.842z"/>
	<path d="M899.147,91.332v2.503H850.7v-2.503h3.077c2.685,0,4.849-0.473,6.488-1.42c1.187-0.631,2.097-1.713,2.733-3.248
		c0.502-1.083,0.753-3.924,0.753-8.524V17.793c0-4.69-0.251-7.622-0.753-8.795c-0.501-1.172-1.513-2.198-3.04-3.079
		c-1.524-0.879-3.587-1.319-6.182-1.319H850.7V2.097h48.447v2.503h-3.077c-2.688,0-4.849,0.473-6.489,1.421
		c-1.186,0.632-2.118,1.714-2.804,3.247c-0.501,1.083-0.749,3.924-0.749,8.524V78.14c0,4.691,0.262,7.623,0.786,8.795
		c0.521,1.173,1.547,2.198,3.074,3.079c1.524,0.879,3.587,1.319,6.182,1.319H899.147z"/>
	<path d="M969.047,62.58l25.145-60.482h37.718v2.503h-3.006c-2.733,0-4.92,0.473-6.56,1.421c-1.139,0.632-2.049,1.691-2.733,3.18
		c-0.502,1.083-0.753,3.901-0.753,8.457V78.14c0,4.691,0.251,7.623,0.753,8.795c0.501,1.173,1.527,2.198,3.074,3.079
		c1.55,0.879,3.623,1.319,6.219,1.319h3.006v2.503h-48.377v-2.503h3.007c2.732,0,4.919-0.473,6.56-1.42
		c1.138-0.631,2.051-1.713,2.733-3.248c0.501-1.083,0.752-3.924,0.752-8.524V10.148l-35.531,83.687h-1.64l-36.078-83.078v64.609
		c0,4.51,0.112,7.284,0.341,8.321c0.592,2.256,1.879,4.093,3.86,5.514c1.983,1.42,5.092,2.13,9.326,2.13v2.503h-31.704v-2.503h0.958
		c2.048,0.046,3.961-0.281,5.739-0.981c1.775-0.698,3.119-1.634,4.032-2.807c0.91-1.173,1.614-2.818,2.116-4.939
		c0.093-0.496,0.138-2.796,0.138-6.901V17.658c0-4.645-0.251-7.544-0.752-8.693c-0.502-1.151-1.527-2.165-3.074-3.045
		c-1.55-0.879-3.621-1.319-6.219-1.319h-2.938V2.097h37.855L969.047,62.58z"/>
	<path d="M1072.566,7.374v37.345h1.843c5.878,0,10.135-1.827,12.778-5.48c2.643-3.653,4.328-9.042,5.058-16.169h2.595v48.034h-2.595
		c-0.547-5.232-1.699-9.516-3.452-12.854c-1.752-3.337-3.792-5.581-6.114-6.731c-2.324-1.149-5.694-1.725-10.112-1.725v25.844
		c0,5.052,0.214,8.142,0.647,9.269c0.435,1.128,1.24,2.053,2.427,2.773c1.183,0.722,3.097,1.083,5.739,1.083h5.534
		c8.656,0,15.59-1.984,20.806-5.954c5.216-3.969,8.963-10.013,11.24-18.131h2.53l-4.171,29.158h-80.082v-2.503h3.077
		c2.686,0,4.85-0.473,6.489-1.42c1.187-0.631,2.097-1.713,2.733-3.248c0.502-1.083,0.752-3.924,0.752-8.524V17.793
		c0-4.149-0.112-6.698-0.341-7.645c-0.456-1.578-1.299-2.796-2.527-3.653c-1.732-1.262-4.1-1.894-7.106-1.894h-3.077V2.097h77.555
		v27.129h-2.595c-1.321-6.63-3.179-11.388-5.57-14.275c-2.39-2.886-5.773-5.006-10.146-6.36c-2.551-0.812-7.335-1.218-14.349-1.218
		H1072.566z"/>
	<path d="M1193.511,0l0.749,30.579h-2.801c-1.321-7.667-4.567-13.835-9.734-18.502c-5.171-4.669-10.764-7.003-16.777-7.003
		c-4.646,0-8.323,1.23-11.034,3.687c-2.71,2.459-4.065,5.289-4.065,8.491c0,2.03,0.479,3.834,1.434,5.413
		c1.322,2.12,3.44,4.217,6.354,6.292c2.142,1.488,7.083,4.126,14.829,7.916c10.84,5.277,18.152,10.261,21.934,14.951
		c3.733,4.691,5.602,10.058,5.602,16.101c0,7.668-3.018,14.265-9.054,19.79c-6.035,5.525-13.699,8.287-22.992,8.287
		c-2.916,0-5.672-0.293-8.268-0.879c-2.598-0.587-5.854-1.691-9.771-3.315c-2.187-0.902-3.987-1.353-5.398-1.353
		c-1.184,0-2.438,0.451-3.757,1.353c-1.321,0.903-2.392,2.278-3.212,4.127h-2.527V61.294h2.527
		c2.004,9.743,5.864,17.174,11.581,22.292c5.717,5.12,11.879,7.679,18.484,7.679c5.1,0,9.166-1.375,12.197-4.127
		c3.029-2.75,4.543-5.954,4.543-9.606c0-2.165-0.581-4.262-1.742-6.292c-1.16-2.03-2.928-3.957-5.297-5.785
		c-2.367-1.826-6.56-4.205-12.572-7.137c-8.428-4.104-14.486-7.6-18.175-10.486c-3.691-2.886-6.525-6.111-8.507-9.675
		c-1.98-3.563-2.973-7.486-2.973-11.771c0-7.306,2.711-13.531,8.132-18.672C1148.639,2.571,1155.472,0,1163.719,0
		c3.007,0,5.92,0.361,8.746,1.083c2.139,0.542,4.748,1.545,7.822,3.011c3.077,1.466,5.227,2.198,6.458,2.198
		c1.184,0,2.119-0.36,2.801-1.083c0.685-0.721,1.321-2.458,1.913-5.209H1193.511z"/>
</g>
</svg>
